<svg width="18" height="19" viewBox="0 0 18 19" fill="none" xmlns="http://www.w3.org/2000/svg">
<path d="M16.7944 8.07834L17.7094 9.01975C18.0969 9.41837 18.0969 10.0629 17.7094 10.4573L9.70071 18.701C9.31326 19.0997 8.68674 19.0997 8.30341 18.701L0.290588 10.4573C-0.0968628 10.0587 -0.0968628 9.41413 0.290588 9.01975L1.20563 8.07834C1.59721 7.67548 2.23609 7.68396 2.61942 8.0953L7.35127 13.2052V1.01774C7.35127 0.453744 7.79231 0 8.34051 0H9.65949C10.2077 0 10.6487 0.453744 10.6487 1.01774V13.2052L15.3806 8.0953C15.7639 7.67972 16.4028 7.67124 16.7944 8.07834Z" fill="white"/>
</svg>
